<mxfile host="app.diagrams.net" modified="2023-07-29T01:03:22.148Z" agent="Mozilla/5.0 (Macintosh; Intel Mac OS X 10_15_7) AppleWebKit/605.1.15 (KHTML, like Gecko) Version/16.6 Safari/605.1.15" version="21.6.6" etag="ygdz22wOFlnyWLYaK7OW" type="github">
  <diagram name="Page-1" id="foZRt3ZTTzuKpoF0NP28">
    <mxGraphModel>
      <root>
        <mxCell id="0" />
        <mxCell id="1" parent="0" />
      </root>
    </mxGraphModel>
  </diagram>
</mxfile>
